<svg width="41" height="11" viewBox="0 0 41 11" fill="none" xmlns="http://www.w3.org/2000/svg">
<path d="M9.15245 5.69866C9.15245 8.17234 7.26087 10.1302 4.98449 10.1302C2.70811 10.1302 0.816528 8.17234 0.816528 5.69866C0.816528 3.22497 2.70811 1.26715 4.98449 1.26715C7.26087 1.26715 9.15245 3.22497 9.15245 5.69866Z" fill="#070707" stroke="black"/>
<path d="M24.7123 5.69866C24.7123 8.17234 22.8207 10.1302 20.5443 10.1302C18.2679 10.1302 16.3763 8.17234 16.3763 5.69866C16.3763 3.22497 18.2679 1.26715 20.5443 1.26715C22.8207 1.26715 24.7123 3.22497 24.7123 5.69866Z" fill="#070707" stroke="black"/>
<path d="M40.2722 5.69866C40.2722 8.17234 38.3806 10.1302 36.1042 10.1302C33.8279 10.1302 31.9363 8.17234 31.9363 5.69866C31.9363 3.22497 33.8279 1.26715 36.1042 1.26715C38.3806 1.26715 40.2722 3.22497 40.2722 5.69866Z" fill="#070707" stroke="black"/>
</svg>
