<svg width="609" height="82" viewBox="0 0 609 82" fill="none" xmlns="http://www.w3.org/2000/svg">
<path d="M0.551 26.7152C0.523396 13.1843 11.47 2.18431 25.0009 2.1461L583.029 0.570583C596.56 0.53238 607.551 11.4704 607.579 25.0014L607.64 55.0012C607.668 68.5322 596.721 79.5321 583.19 79.5703L25.162 81.1459C11.6311 81.1841 0.639806 70.246 0.612202 56.7151L0.551 26.7152Z" fill="white" stroke="black"/>
<path d="M565.872 46.9887H563.802L563.069 46.3137C565.636 43.4637 567.182 39.7637 567.182 35.7387C567.182 26.7637 559.559 19.4887 550.155 19.4887C540.751 19.4887 533.128 26.7637 533.128 35.7387C533.128 44.7137 540.751 51.9887 550.155 51.9887C554.372 51.9887 558.249 50.5137 561.235 48.0637L561.943 48.7637V50.7387L575.04 63.2137L578.943 59.4887L565.872 46.9887V46.9887ZM550.155 46.9887C543.632 46.9887 538.367 41.9637 538.367 35.7387C538.367 29.5137 543.632 24.4887 550.155 24.4887C556.677 24.4887 561.943 29.5137 561.943 35.7387C561.943 41.9637 556.677 46.9887 550.155 46.9887Z" fill="#4F5B67"/>
</svg>
