<svg width="41" height="10" viewBox="0 0 41 10" fill="none" xmlns="http://www.w3.org/2000/svg">
<path d="M9.10648 5.39589C9.10648 7.64937 7.24648 9.49041 4.93434 9.49041C2.62221 9.49041 0.762207 7.64937 0.762207 5.39589C0.762207 3.14241 2.62221 1.30137 4.93434 1.30137C7.24648 1.30137 9.10648 3.14241 9.10648 5.39589Z" fill="#070707" stroke="black"/>
<path d="M24.6803 5.39589C24.6803 7.64937 22.8203 9.49041 20.5081 9.49041C18.196 9.49041 16.336 7.64937 16.336 5.39589C16.336 3.14241 18.196 1.30137 20.5081 1.30137C22.8203 1.30137 24.6803 3.14241 24.6803 5.39589Z" fill="#070707" stroke="black"/>
<path d="M40.2541 5.39589C40.2541 7.64937 38.3941 9.49041 36.082 9.49041C33.7699 9.49041 31.9099 7.64937 31.9099 5.39589C31.9099 3.14241 33.7699 1.30137 36.082 1.30137C38.3941 1.30137 40.2541 3.14241 40.2541 5.39589Z" fill="#070707" stroke="black"/>
</svg>
